<?xml version="1.0" encoding="utf-8"?>
<!-- Generator: Adobe Illustrator 23.0.3, SVG Export Plug-In . SVG Version: 6.00 Build 0)  -->
<svg version="1.1" id="Layer_1" xmlns="http://www.w3.org/2000/svg" xmlns:xlink="http://www.w3.org/1999/xlink" x="0px" y="0px"
	 viewBox="0 0 125.98 322.69" style="enable-background:new 0 0 125.98 322.69;" xml:space="preserve">
<style type="text/css">
	.st0{fill:#FFFFFF;stroke:#000000;stroke-miterlimit:10;}
	.st1{fill:#FFFFFF;stroke:#00A14B;stroke-miterlimit:10;}
	.st2{fill:none;stroke:#000000;stroke-miterlimit:10;}
</style>
<path class="st0" d="M26.99,120.25v166.4c0,19.88,16.12,36,36,36s36-16.12,36-36l0-166.1"/>
<g>
	<g>
		<path class="st0" d="M98.99,120.55c8.26-3.47,7.83-11.21,8.57-14.45c0.53-1.58,1.05-2.63,3.94-4.2c6.04-3.94,6.83-12.6-3.41-21
			c13.92-1.05,17.85-9.19,14.97-15.75c-1.05-2.63-1.31-3.68-0.53-5.78c1.05-2.63,3.41-5.78,3.41-9.45c0-3.94-2.1-8.4-4.73-10.5
			c-4.73-3.41-7.61-2.36-9.45-8.93c-1.84-7.09-9.98-10.24-21-3.41c2.63-9.98,0-18.9-10.24-18.9C71.86,8.7,73.7,0.04,63.19,0.04
			s-9.98,9.19-18.38,8.14c-0.26,0-5.78-0.26-8.66,4.46c-2.63,4.46-2.36,9.71-1.05,14.7c-8.66-5.51-18.38-6.04-21.27,3.94
			C12,38.37,6.48,36.27,2.81,41.26c-6.04,8.14-0.53,14.7,0.79,18.12c0.53,1.58,0.79,2.63-0.53,5.78
			C0.45,71.97,4.91,79.33,18.3,80.38c-7.88,6.56-11.29,15.75-2.89,21.53c6.04,3.94,2.36,8.4,6.04,13.65
			c1.44,2.03,3.02,3.38,4.63,4.25 M84.99,51.5l9.71-9.19c0.53-0.53,1.31-0.53,1.84,0s0.53,1.31,0,1.84l-9.71,9.19
			c-0.26,0.26-0.53,0.26-0.79,0.26c-0.26,0-0.79,0-1.05-0.26C84.46,52.81,84.46,52.02,84.99,51.5z M67.66,39.68l5.78-12.08
			c0.26-0.79,1.05-0.79,1.84-0.53s0.79,1.05,0.53,1.58l-5.78,12.08c-0.26,0.53-1.05,0.79-1.84,0.53
			C67.66,40.99,67.4,40.21,67.66,39.68z M61.36,20.78c0-0.79,0.53-1.31,1.31-1.31s1.31,0.53,1.31,1.31v21.79
			c0,0.79-0.53,1.31-1.31,1.31s-1.31-0.53-1.31-1.31V20.78z M50.59,26.82c0.53-0.26,1.31,0,1.58,0.53l5.78,12.08
			c0.26,0.53,0,1.31-0.53,1.84c-0.53,0.26-1.31,0-1.58-0.53l-5.78-12.08C49.8,27.87,50.07,27.34,50.59,26.82z M29.33,42.57
			c0.53-0.53,1.31-0.53,1.84,0l9.71,9.19c0.53,0.53,0.53,1.31,0,1.84s-1.31,0.53-1.84,0l-9.71-9.19
			C28.8,43.88,28.8,43.09,29.33,42.57z M19.35,53.6c-0.79-0.26-1.05-1.05-0.79-1.58c0.26-0.79,1.05-1.05,1.58-0.79l20.74,6.83
			c0.79,0.26,1.05,1.05,0.79,1.58c-0.26,0.79-0.79,1.05-1.58,0.79L19.35,53.6z M23.02,66.99c-0.79,0-1.31-0.53-1.31-1.05
			c0-0.79,0.53-1.31,1.05-1.31l13.13-1.84c0.79,0,1.31,0.53,1.58,1.05c0,0.79-0.53,1.31-1.05,1.31L23.02,66.99z M31.69,91.4
			c-0.79,0.26-1.31,0-1.84-0.53c-0.26-0.53,0-1.31,0.53-1.84l11.55-6.3c0.53-0.26,1.31,0,1.84,0.53c0.26,0.53,0,1.31-0.53,1.84
			L31.69,91.4z M37.2,103.74c-0.53,0.53-1.31,0.79-1.84,0.26s-0.79-1.31-0.26-1.84l12.86-17.59c0.53-0.53,1.31-0.79,1.84-0.26
			c0.53,0.26,0.79,1.31,0.26,1.84L37.2,103.74z M51.12,104.27c0,0.53-0.53,1.05-1.58,1.05c-0.79-0.26-1.05-0.79-1.05-1.58
			l2.36-13.13c0.26-0.79,0.79-1.05,1.58-1.05c0.79,0.26,1.05,0.79,1.05,1.58L51.12,104.27z M62.93,80.38
			c-8.4,0-15.23-6.83-15.23-15.23s6.83-15.23,15.23-15.23s15.23,6.83,15.23,15.23S71.33,80.38,62.93,80.38z M76.06,105.32
			c-1.05,0-1.31-0.53-1.58-1.05l-2.36-13.13c0-0.79,0.26-1.31,1.05-1.58c0.79-0.26,1.31,0.26,1.58,1.05l2.36,13.13
			C77.37,104.53,76.85,105.32,76.06,105.32z M90.24,104.01c-0.53,0.53-1.31,0.26-1.84-0.26L75.8,86.15
			c-0.53-0.53-0.26-1.31,0.26-1.84s1.31-0.26,1.84,0.26l12.86,17.59C91.02,102.69,91.02,103.48,90.24,104.01z M96.01,90.88
			c-0.26,0.53-1.05,0.79-1.84,0.53l-11.81-6.3c-0.53-0.26-0.79-1.05-0.53-1.84c0.26-0.53,1.05-0.79,1.84-0.53l11.81,6.3
			C96.01,89.57,96.28,90.35,96.01,90.88z M102.84,66.99L102.84,66.99l-13.39-1.84c-0.79,0-1.31-0.79-1.05-1.31
			c0-0.79,0.79-1.31,1.31-1.05l13.13,1.84c0.79,0,1.31,0.79,1.05,1.31C104.15,66.46,103.36,66.99,102.84,66.99z M106.52,53.6
			l-20.74,6.83c-0.26,0-0.26,0-0.53,0c-0.53,0-1.05-0.26-1.31-0.79c-0.26-0.79,0.26-1.31,0.79-1.58l20.74-6.83
			c0.79-0.26,1.31,0.26,1.58,0.79C107.57,52.55,107.04,53.33,106.52,53.6z"/>
	</g>
</g>
<g>
	<g>
		<path class="st1" d="M26.08,119.81c4.82,2.61,9.94,0.94,12.7,0.74c0.53,0,1.58-0.53,4.99,2.1c6.04,4.99,14.44,3.41,19.43-9.45
			c1.31,3.15,2.89,5.78,4.73,8.14c3.41,3.94,9.45,5.51,14.7,1.31c5.78-4.46,9.19,0.26,14.97-1.58c0.49-0.16,0.96-0.33,1.4-0.52"/>
	</g>
</g>
<g>
	<path class="st2" d="M46.39,124.3v162.36c0,9.15,7.45,16.6,16.6,16.6s16.6-7.45,16.6-16.6V124.3"/>
	<path class="st2" d="M89.59,120.79v165.87c0,14.67-11.93,26.6-26.6,26.6s-26.6-11.93-26.6-26.6V120.79"/>
</g>
</svg>
